<svg id="Layer_1" data-name="Layer 1" xmlns="http://www.w3.org/2000/svg" viewBox="0 0 281 286"><defs><style>.cls-1{fill:#ffcb77;}.cls-2,.cls-3,.cls-5{isolation:isolate;}.cls-3{font-size:25px;}.cls-3,.cls-5{fill:#fff9ef;font-family:Montserrat-Bold, Montserrat;font-weight:700;}.cls-4{fill:#fff;}.cls-5{font-size:35px;}</style></defs><rect id="Rectangle_36-2" data-name="Rectangle 36-2" class="cls-1" width="281" height="286" rx="52"/><g id="Sign_Up" data-name="Sign Up" class="cls-2"><text class="cls-3" transform="translate(89 222)">Sign Up</text></g><g id="Group_30" data-name="Group 30"><path id="Path_75" data-name="Path 75" class="cls-4" d="M342.82,329.81H271.41v-66.5H312v4.17H275.59v58.16h63.05V301.29h4.18Z" transform="translate(-165.5 -172)"/><path id="Path_76" data-name="Path 76" class="cls-4" d="M272.33,264.21H311.1v2.35H274.68v60h64.88V302.2h2.35v26.7H272.33Zm-1.83-1.82v68.34h73.24V300.38h-6v24.34H276.51V268.39h36.42v-6Z" transform="translate(-165.5 -172)"/><path id="Path_77" data-name="Path 77" class="cls-4" d="M320.82,302.05l-12-12.85,33.25-31,12,12.85Zm-6.06-12.63,6.27,6.73,27.13-25.26-6.27-6.74Z" transform="translate(-165.5 -172)"/><path id="Path_78" data-name="Path 78" class="cls-4" d="M320.78,303.34l-13.22-14.18L342.15,257l13.21,14.19Zm-10.63-14.09,10.72,11.51,31.9-29.71-10.71-11.52ZM321,297.44l-7.51-8.07,28.47-26.51,7.51,8.07Zm-4.93-8,5,5.4,25.79-24-5-5.4Z" transform="translate(-165.5 -172)"/><path id="Path_79" data-name="Path 79" class="cls-4" d="M357.15,268.63l-12-12.85,10.19-9.49,12,12.85ZM351.09,256l6.27,6.74,4.08-3.8-6.28-6.73Z" transform="translate(-165.5 -172)"/><path id="Path_80" data-name="Path 80" class="cls-4" d="M352.38,256l2.74-2.55,5,5.4-2.74,2.55Zm-2.58-.1,7.52,8.08,5.41-5-7.52-8.08Zm-3.32-.11,8.85-8.25,10.72,11.52-8.85,8.24ZM355.42,245l-11.53,10.73,13.22,14.19,11.52-10.73Z" transform="translate(-165.5 -172)"/><path id="Path_81" data-name="Path 81" class="cls-4" d="M302.62,307l4.17-14.54,10.64,11.42Zm5.83-7.61-.85,3,3-.64Z" transform="translate(-165.5 -172)"/><path id="Path_82" data-name="Path 82" class="cls-4" d="M301.32,308.17l5-17.56L319.2,304.4Zm5.9-13.95-3.31,11.54,11.75-2.48Zm-.92,9.31,1.72-6,4.38,4.7Z" transform="translate(-165.5 -172)"/></g><g id="_1." data-name=" 1." class="cls-2"><text class="cls-5" transform="translate(42 64)">1.</text></g></svg>