<svg id="Layer_1" data-name="Layer 1" xmlns="http://www.w3.org/2000/svg" viewBox="0 0 281 286"><defs><style>.cls-1{fill:#ffcb77;}.cls-2,.cls-3,.cls-6{isolation:isolate;}.cls-3{font-size:35px;}.cls-3,.cls-6{fill:#fff9ef;font-family:Montserrat-Bold, Montserrat;font-weight:700;}.cls-4{letter-spacing:0.01em;}.cls-5{fill:#fff;}.cls-6{font-size:25px;}.cls-7{letter-spacing:0em;}.cls-8{letter-spacing:-0.02em;}</style></defs><rect id="Rectangle_42-2" data-name="Rectangle 42-2" class="cls-1" width="281" height="286" rx="52"/><g id="_2." data-name=" 2." class="cls-2"><text class="cls-3" transform="translate(43 63)"><tspan class="cls-4">2</tspan><tspan x="21" y="0">.</tspan></text></g><g id="Group_35" data-name="Group 35"><path id="Path_83" data-name="Path 83" class="cls-5" d="M210.22,282.83l-7-3.6L196.31,283l1.26-7.76-5.67-5.44,7.77-1.19,3.41-7.07,3.54,7,7.78,1.07-5.58,5.53Z" transform="translate(-133.5 -144)"/><path id="Path_84" data-name="Path 84" class="cls-5" d="M199.27,274.63l-4-3.8,5.42-.83,2.39-4.95,2.47,4.9,5.44.75-3.9,3.86,1,5.4-4.88-2.51L198.38,280Zm-.66-7.5-10.11,1.55,7.38,7.08-1.64,10.09,9-4.83,9.09,4.68-1.81-10.06,7.26-7.2-10.13-1.39-4.6-9.13Z" transform="translate(-133.5 -144)"/><path id="Path_85" data-name="Path 85" class="cls-5" d="M245.4,282.83l-7-3.6L231.49,283l1.26-7.76-5.67-5.43,7.77-1.2,3.42-7.07,3.53,7,7.79,1.07L244,275.1Z" transform="translate(-133.5 -144)"/><path id="Path_86" data-name="Path 86" class="cls-5" d="M234.44,274.63l-4-3.8,5.43-.84,2.39-4.94,2.46,4.9,5.44.75-3.9,3.86,1,5.4-4.87-2.51L233.56,280Zm3.8-16.71-4.45,9.21-10.11,1.55,7.38,7.08-1.65,10.09,9-4.83,9.09,4.68-1.81-10.06,7.26-7.2-10.13-1.39Z" transform="translate(-133.5 -144)"/><path id="Path_87" data-name="Path 87" class="cls-5" d="M280.57,282.83l-7-3.6L266.66,283l1.27-7.76-5.68-5.43,7.77-1.2,3.42-7.07,3.54,7,7.78,1.07-5.58,5.53Z" transform="translate(-133.5 -144)"/><path id="Path_88" data-name="Path 88" class="cls-5" d="M269.62,274.63l-4-3.8,5.42-.84,2.39-4.94,2.47,4.9,5.44.75-3.9,3.86,1,5.4-4.88-2.51L268.74,280Zm3.79-16.71L269,267.13l-10.11,1.55,7.39,7.08-1.65,10.09,9-4.83,9.09,4.68-1.81-10.06,7.27-7.2L278,267.05Z" transform="translate(-133.5 -144)"/><path id="Path_89" data-name="Path 89" class="cls-5" d="M315.75,282.83l-7-3.6L301.84,283l1.26-7.76-5.67-5.43,7.77-1.2,3.42-7.07,3.53,7,7.79,1.07-5.58,5.53Z" transform="translate(-133.5 -144)"/><path id="Path_90" data-name="Path 90" class="cls-5" d="M304.8,274.63l-4-3.8,5.42-.84,2.39-4.94,2.47,4.9,5.44.75-3.9,3.86,1,5.4-4.88-2.51L303.91,280Zm-.66-7.5L294,268.68l7.38,7.08-1.64,10.09,9-4.83,9.09,4.68-1.81-10.06,7.26-7.2-10.13-1.39-4.6-9.13Z" transform="translate(-133.5 -144)"/><path id="Path_91" data-name="Path 91" class="cls-5" d="M340,274.63l-4-3.8,5.42-.84,2.39-4.94,2.47,4.9,5.44.75-3.9,3.86,1,5.4-4.88-2.51L339.09,280Zm-.66-7.5-10.11,1.55,7.39,7.08-1.65,10.09,9-4.83L353,285.7l-1.8-10.06,7.26-7.2-10.13-1.39-4.6-9.13Z" transform="translate(-133.5 -144)"/></g><g id="Rate" class="cls-2"><text class="cls-6" transform="translate(110 221)"><tspan class="cls-7">R</tspan><tspan x="18.25" y="0">a</tspan><tspan class="cls-8" x="33.67" y="0">t</tspan><tspan x="44.12" y="0">e</tspan></text></g></svg>